solid vcg
  facet normal  0.000000e+00  0.000000e+00  1.000000e+00
    outer loop
      vertex  -3.437500e+01 -5.412650e+01  0.000000e+00
      vertex  -2.187500e+01 -5.412650e+01  0.000000e+00
      vertex  -2.812500e+01 -4.330120e+01  0.000000e+00
    endloop
  endfacet
  facet normal -0.000000e+00  0.000000e+00  1.000000e+00
    outer loop
      vertex  -2.812500e+01 -4.330120e+01  0.000000e+00
      vertex  -2.187500e+01 -5.412650e+01  0.000000e+00
      vertex  -1.562500e+01 -4.330120e+01  0.000000e+00
    endloop
  endfacet
  facet normal  0.000000e+00  0.000000e+00  1.000000e+00
    outer loop
      vertex  -3.437500e+01 -4.330120e+01  0.000000e+00
      vertex  -2.187500e+01 -4.330120e+01  0.000000e+00
      vertex  -2.812500e+01 -3.247585e+01  0.000000e+00
    endloop
  endfacet
  facet normal -0.000000e+00  0.000000e+00  1.000000e+00
    outer loop
      vertex  -2.812500e+01 -3.247585e+01  0.000000e+00
      vertex  -2.187500e+01 -4.330120e+01  0.000000e+00
      vertex  -1.562500e+01 -3.247585e+01  0.000000e+00
    endloop
  endfacet
  facet normal  0.000000e+00  0.000000e+00  1.000000e+00
    outer loop
      vertex  -3.437500e+01 -3.247585e+01  0.000000e+00
      vertex  -2.187500e+01 -3.247585e+01  0.000000e+00
      vertex  -2.812500e+01 -2.165055e+01  0.000000e+00
    endloop
  endfacet
  facet normal -0.000000e+00  0.000000e+00  1.000000e+00
    outer loop
      vertex  -2.812500e+01 -2.165055e+01  0.000000e+00
      vertex  -2.187500e+01 -3.247585e+01  0.000000e+00
      vertex  -1.562500e+01 -2.165055e+01  0.000000e+00
    endloop
  endfacet
  facet normal  0.000000e+00  0.000000e+00  1.000000e+00
    outer loop
      vertex  -3.437500e+01 -2.165055e+01  0.000000e+00
      vertex  -2.187500e+01 -2.165055e+01  0.000000e+00
      vertex  -2.812500e+01 -1.082525e+01  0.000000e+00
    endloop
  endfacet
  facet normal -0.000000e+00  0.000000e+00  1.000000e+00
    outer loop
      vertex  -2.812500e+01 -1.082525e+01  0.000000e+00
      vertex  -2.187500e+01 -2.165055e+01  0.000000e+00
      vertex  -1.562500e+01 -1.082525e+01  0.000000e+00
    endloop
  endfacet
  facet normal  0.000000e+00  0.000000e+00  1.000000e+00
    outer loop
      vertex  -3.437500e+01 -1.082525e+01  0.000000e+00
      vertex  -2.187500e+01 -1.082525e+01  0.000000e+00
      vertex  -2.812500e+01  0.000000e+00  0.000000e+00
    endloop
  endfacet
  facet normal -0.000000e+00  0.000000e+00  1.000000e+00
    outer loop
      vertex  -2.812500e+01  0.000000e+00  0.000000e+00
      vertex  -2.187500e+01 -1.082525e+01  0.000000e+00
      vertex  -1.562500e+01  0.000000e+00  0.000000e+00
    endloop
  endfacet
  facet normal  0.000000e+00  0.000000e+00  1.000000e+00
    outer loop
      vertex  -3.437500e+01  0.000000e+00  0.000000e+00
      vertex  -2.187500e+01  0.000000e+00  0.000000e+00
      vertex  -2.812500e+01  1.082550e+01  0.000000e+00
    endloop
  endfacet
  facet normal -0.000000e+00  0.000000e+00  1.000000e+00
    outer loop
      vertex  -2.812500e+01  1.082550e+01  0.000000e+00
      vertex  -2.187500e+01  0.000000e+00  0.000000e+00
      vertex  -1.562500e+01  1.082550e+01  0.000000e+00
    endloop
  endfacet
  facet normal  0.000000e+00  0.000000e+00  1.000000e+00
    outer loop
      vertex  -3.437500e+01  1.082550e+01  0.000000e+00
      vertex  -2.187500e+01  1.082550e+01  0.000000e+00
      vertex  -2.812500e+01  2.165050e+01  0.000000e+00
    endloop
  endfacet
  facet normal -0.000000e+00  0.000000e+00  1.000000e+00
    outer loop
      vertex  -2.812500e+01  2.165050e+01  0.000000e+00
      vertex  -2.187500e+01  1.082550e+01  0.000000e+00
      vertex  -1.562500e+01  2.165050e+01  0.000000e+00
    endloop
  endfacet
  facet normal  0.000000e+00  0.000000e+00  1.000000e+00
    outer loop
      vertex  -3.437500e+01  2.165050e+01  0.000000e+00
      vertex  -2.187500e+01  2.165050e+01  0.000000e+00
      vertex  -2.812500e+01  3.247600e+01  0.000000e+00
    endloop
  endfacet
  facet normal -0.000000e+00  0.000000e+00  1.000000e+00
    outer loop
      vertex  -2.812500e+01  3.247600e+01  0.000000e+00
      vertex  -2.187500e+01  2.165050e+01  0.000000e+00
      vertex  -1.562500e+01  3.247600e+01  0.000000e+00
    endloop
  endfacet
  facet normal  0.000000e+00  0.000000e+00  1.000000e+00
    outer loop
      vertex  -3.437500e+01  3.247600e+01  0.000000e+00
      vertex  -2.187500e+01  3.247600e+01  0.000000e+00
      vertex  -2.812500e+01  4.330150e+01  0.000000e+00
    endloop
  endfacet
  facet normal -0.000000e+00  0.000000e+00  1.000000e+00
    outer loop
      vertex  -2.812500e+01  4.330150e+01  0.000000e+00
      vertex  -2.187500e+01  3.247600e+01  0.000000e+00
      vertex  -1.562500e+01  4.330150e+01  0.000000e+00
    endloop
  endfacet
  facet normal  0.000000e+00  0.000000e+00  1.000000e+00
    outer loop
      vertex  -3.437500e+01  4.330150e+01  0.000000e+00
      vertex  -2.187500e+01  4.330150e+01  0.000000e+00
      vertex  -2.812500e+01  5.412650e+01  0.000000e+00
    endloop
  endfacet
  facet normal -0.000000e+00  0.000000e+00  1.000000e+00
    outer loop
      vertex  -2.812500e+01  5.412650e+01  0.000000e+00
      vertex  -2.187500e+01  4.330150e+01  0.000000e+00
      vertex  -1.562500e+01  5.412650e+01  0.000000e+00
    endloop
  endfacet
  facet normal  0.000000e+00  0.000000e+00  1.000000e+00
    outer loop
      vertex  -2.187500e+01 -5.412650e+01  0.000000e+00
      vertex  -9.375000e+00 -5.412650e+01  0.000000e+00
      vertex  -1.562500e+01 -4.330120e+01  0.000000e+00
    endloop
  endfacet
  facet normal -0.000000e+00  0.000000e+00  1.000000e+00
    outer loop
      vertex  -1.562500e+01 -4.330120e+01  0.000000e+00
      vertex  -9.375000e+00 -5.412650e+01  0.000000e+00
      vertex  -3.125000e+00 -4.330120e+01  0.000000e+00
    endloop
  endfacet
  facet normal  0.000000e+00  0.000000e+00  1.000000e+00
    outer loop
      vertex  -2.187500e+01 -4.330120e+01  0.000000e+00
      vertex  -9.375000e+00 -4.330120e+01  0.000000e+00
      vertex  -1.562500e+01 -3.247585e+01  0.000000e+00
    endloop
  endfacet
  facet normal -0.000000e+00  0.000000e+00  1.000000e+00
    outer loop
      vertex  -1.562500e+01 -3.247585e+01  0.000000e+00
      vertex  -9.375000e+00 -4.330120e+01  0.000000e+00
      vertex  -3.125000e+00 -3.247585e+01  0.000000e+00
    endloop
  endfacet
  facet normal  0.000000e+00  0.000000e+00  1.000000e+00
    outer loop
      vertex  -2.187500e+01 -3.247585e+01  0.000000e+00
      vertex  -9.375000e+00 -3.247585e+01  0.000000e+00
      vertex  -1.562500e+01 -2.165055e+01  0.000000e+00
    endloop
  endfacet
  facet normal -0.000000e+00  0.000000e+00  1.000000e+00
    outer loop
      vertex  -1.562500e+01 -2.165055e+01  0.000000e+00
      vertex  -9.375000e+00 -3.247585e+01  0.000000e+00
      vertex  -3.125000e+00 -2.165055e+01  0.000000e+00
    endloop
  endfacet
  facet normal  0.000000e+00  0.000000e+00  1.000000e+00
    outer loop
      vertex  -2.187500e+01 -2.165055e+01  0.000000e+00
      vertex  -9.375000e+00 -2.165055e+01  0.000000e+00
      vertex  -1.562500e+01 -1.082525e+01  0.000000e+00
    endloop
  endfacet
  facet normal -0.000000e+00  0.000000e+00  1.000000e+00
    outer loop
      vertex  -1.562500e+01 -1.082525e+01  0.000000e+00
      vertex  -9.375000e+00 -2.165055e+01  0.000000e+00
      vertex  -3.125000e+00 -1.082525e+01  0.000000e+00
    endloop
  endfacet
  facet normal  0.000000e+00  0.000000e+00  1.000000e+00
    outer loop
      vertex  -2.187500e+01 -1.082525e+01  0.000000e+00
      vertex  -9.375000e+00 -1.082525e+01  0.000000e+00
      vertex  -1.562500e+01  0.000000e+00  0.000000e+00
    endloop
  endfacet
  facet normal -0.000000e+00  0.000000e+00  1.000000e+00
    outer loop
      vertex  -1.562500e+01  0.000000e+00  0.000000e+00
      vertex  -9.375000e+00 -1.082525e+01  0.000000e+00
      vertex  -3.125000e+00  0.000000e+00  0.000000e+00
    endloop
  endfacet
  facet normal  0.000000e+00  0.000000e+00  1.000000e+00
    outer loop
      vertex  -2.187500e+01  0.000000e+00  0.000000e+00
      vertex  -9.375000e+00  0.000000e+00  0.000000e+00
      vertex  -1.562500e+01  1.082550e+01  0.000000e+00
    endloop
  endfacet
  facet normal -0.000000e+00  0.000000e+00  1.000000e+00
    outer loop
      vertex  -1.562500e+01  1.082550e+01  0.000000e+00
      vertex  -9.375000e+00  0.000000e+00  0.000000e+00
      vertex  -3.125000e+00  1.082550e+01  0.000000e+00
    endloop
  endfacet
  facet normal  0.000000e+00  0.000000e+00  1.000000e+00
    outer loop
      vertex  -2.187500e+01  1.082550e+01  0.000000e+00
      vertex  -9.375000e+00  1.082550e+01  0.000000e+00
      vertex  -1.562500e+01  2.165050e+01  0.000000e+00
    endloop
  endfacet
  facet normal -0.000000e+00  0.000000e+00  1.000000e+00
    outer loop
      vertex  -1.562500e+01  2.165050e+01  0.000000e+00
      vertex  -9.375000e+00  1.082550e+01  0.000000e+00
      vertex  -3.125000e+00  2.165050e+01  0.000000e+00
    endloop
  endfacet
  facet normal  0.000000e+00  0.000000e+00  1.000000e+00
    outer loop
      vertex  -2.187500e+01  2.165050e+01  0.000000e+00
      vertex  -9.375000e+00  2.165050e+01  0.000000e+00
      vertex  -1.562500e+01  3.247600e+01  0.000000e+00
    endloop
  endfacet
  facet normal -0.000000e+00  0.000000e+00  1.000000e+00
    outer loop
      vertex  -1.562500e+01  3.247600e+01  0.000000e+00
      vertex  -9.375000e+00  2.165050e+01  0.000000e+00
      vertex  -3.125000e+00  3.247600e+01  0.000000e+00
    endloop
  endfacet
  facet normal  0.000000e+00  0.000000e+00  1.000000e+00
    outer loop
      vertex  -2.187500e+01  3.247600e+01  0.000000e+00
      vertex  -9.375000e+00  3.247600e+01  0.000000e+00
      vertex  -1.562500e+01  4.330150e+01  0.000000e+00
    endloop
  endfacet
  facet normal -0.000000e+00  0.000000e+00  1.000000e+00
    outer loop
      vertex  -1.562500e+01  4.330150e+01  0.000000e+00
      vertex  -9.375000e+00  3.247600e+01  0.000000e+00
      vertex  -3.125000e+00  4.330150e+01  0.000000e+00
    endloop
  endfacet
  facet normal  0.000000e+00  0.000000e+00  1.000000e+00
    outer loop
      vertex  -2.187500e+01  4.330150e+01  0.000000e+00
      vertex  -9.375000e+00  4.330150e+01  0.000000e+00
      vertex  -1.562500e+01  5.412650e+01  0.000000e+00
    endloop
  endfacet
  facet normal -0.000000e+00  0.000000e+00  1.000000e+00
    outer loop
      vertex  -1.562500e+01  5.412650e+01  0.000000e+00
      vertex  -9.375000e+00  4.330150e+01  0.000000e+00
      vertex  -3.125000e+00  5.412650e+01  0.000000e+00
    endloop
  endfacet
  facet normal  0.000000e+00  0.000000e+00  1.000000e+00
    outer loop
      vertex  -9.375000e+00 -5.412650e+01  0.000000e+00
      vertex   3.125000e+00 -5.412650e+01  0.000000e+00
      vertex  -3.125000e+00 -4.330120e+01  0.000000e+00
    endloop
  endfacet
  facet normal -0.000000e+00  0.000000e+00  1.000000e+00
    outer loop
      vertex  -3.125000e+00 -4.330120e+01  0.000000e+00
      vertex   3.125000e+00 -5.412650e+01  0.000000e+00
      vertex   9.375000e+00 -4.330120e+01  0.000000e+00
    endloop
  endfacet
  facet normal  0.000000e+00  0.000000e+00  1.000000e+00
    outer loop
      vertex  -9.375000e+00 -4.330120e+01  0.000000e+00
      vertex   3.125000e+00 -4.330120e+01  0.000000e+00
      vertex  -3.125000e+00 -3.247585e+01  0.000000e+00
    endloop
  endfacet
  facet normal -0.000000e+00  0.000000e+00  1.000000e+00
    outer loop
      vertex  -3.125000e+00 -3.247585e+01  0.000000e+00
      vertex   3.125000e+00 -4.330120e+01  0.000000e+00
      vertex   9.375000e+00 -3.247585e+01  0.000000e+00
    endloop
  endfacet
  facet normal  0.000000e+00  0.000000e+00  1.000000e+00
    outer loop
      vertex  -9.375000e+00 -3.247585e+01  0.000000e+00
      vertex   3.125000e+00 -3.247585e+01  0.000000e+00
      vertex  -3.125000e+00 -2.165055e+01  0.000000e+00
    endloop
  endfacet
  facet normal -0.000000e+00  0.000000e+00  1.000000e+00
    outer loop
      vertex  -3.125000e+00 -2.165055e+01  0.000000e+00
      vertex   3.125000e+00 -3.247585e+01  0.000000e+00
      vertex   9.375000e+00 -2.165055e+01  0.000000e+00
    endloop
  endfacet
  facet normal  0.000000e+00  0.000000e+00  1.000000e+00
    outer loop
      vertex  -9.375000e+00 -2.165055e+01  0.000000e+00
      vertex   3.125000e+00 -2.165055e+01  0.000000e+00
      vertex  -3.125000e+00 -1.082525e+01  0.000000e+00
    endloop
  endfacet
  facet normal -0.000000e+00  0.000000e+00  1.000000e+00
    outer loop
      vertex  -3.125000e+00 -1.082525e+01  0.000000e+00
      vertex   3.125000e+00 -2.165055e+01  0.000000e+00
      vertex   9.375000e+00 -1.082525e+01  0.000000e+00
    endloop
  endfacet
  facet normal  0.000000e+00  0.000000e+00  1.000000e+00
    outer loop
      vertex  -9.375000e+00 -1.082525e+01  0.000000e+00
      vertex   3.125000e+00 -1.082525e+01  0.000000e+00
      vertex  -3.125000e+00  0.000000e+00  0.000000e+00
    endloop
  endfacet
  facet normal -0.000000e+00  0.000000e+00  1.000000e+00
    outer loop
      vertex  -3.125000e+00  0.000000e+00  0.000000e+00
      vertex   3.125000e+00 -1.082525e+01  0.000000e+00
      vertex   9.375000e+00  0.000000e+00  0.000000e+00
    endloop
  endfacet
  facet normal  0.000000e+00  0.000000e+00  1.000000e+00
    outer loop
      vertex  -9.375000e+00  0.000000e+00  0.000000e+00
      vertex   3.125000e+00  0.000000e+00  0.000000e+00
      vertex  -3.125000e+00  1.082550e+01  0.000000e+00
    endloop
  endfacet
  facet normal -0.000000e+00  0.000000e+00  1.000000e+00
    outer loop
      vertex  -3.125000e+00  1.082550e+01  0.000000e+00
      vertex   3.125000e+00  0.000000e+00  0.000000e+00
      vertex   9.375000e+00  1.082550e+01  0.000000e+00
    endloop
  endfacet
  facet normal  0.000000e+00  0.000000e+00  1.000000e+00
    outer loop
      vertex  -9.375000e+00  1.082550e+01  0.000000e+00
      vertex   3.125000e+00  1.082550e+01  0.000000e+00
      vertex  -3.125000e+00  2.165050e+01  0.000000e+00
    endloop
  endfacet
  facet normal -0.000000e+00  0.000000e+00  1.000000e+00
    outer loop
      vertex  -3.125000e+00  2.165050e+01  0.000000e+00
      vertex   3.125000e+00  1.082550e+01  0.000000e+00
      vertex   9.375000e+00  2.165050e+01  0.000000e+00
    endloop
  endfacet
  facet normal  0.000000e+00  0.000000e+00  1.000000e+00
    outer loop
      vertex  -9.375000e+00  2.165050e+01  0.000000e+00
      vertex   3.125000e+00  2.165050e+01  0.000000e+00
      vertex  -3.125000e+00  3.247600e+01  0.000000e+00
    endloop
  endfacet
  facet normal -0.000000e+00  0.000000e+00  1.000000e+00
    outer loop
      vertex  -3.125000e+00  3.247600e+01  0.000000e+00
      vertex   3.125000e+00  2.165050e+01  0.000000e+00
      vertex   9.375000e+00  3.247600e+01  0.000000e+00
    endloop
  endfacet
  facet normal  0.000000e+00  0.000000e+00  1.000000e+00
    outer loop
      vertex  -9.375000e+00  3.247600e+01  0.000000e+00
      vertex   3.125000e+00  3.247600e+01  0.000000e+00
      vertex  -3.125000e+00  4.330150e+01  0.000000e+00
    endloop
  endfacet
  facet normal -0.000000e+00  0.000000e+00  1.000000e+00
    outer loop
      vertex  -3.125000e+00  4.330150e+01  0.000000e+00
      vertex   3.125000e+00  3.247600e+01  0.000000e+00
      vertex   9.375000e+00  4.330150e+01  0.000000e+00
    endloop
  endfacet
  facet normal  0.000000e+00  0.000000e+00  1.000000e+00
    outer loop
      vertex  -9.375000e+00  4.330150e+01  0.000000e+00
      vertex   3.125000e+00  4.330150e+01  0.000000e+00
      vertex  -3.125000e+00  5.412650e+01  0.000000e+00
    endloop
  endfacet
  facet normal -0.000000e+00  0.000000e+00  1.000000e+00
    outer loop
      vertex  -3.125000e+00  5.412650e+01  0.000000e+00
      vertex   3.125000e+00  4.330150e+01  0.000000e+00
      vertex   9.375000e+00  5.412650e+01  0.000000e+00
    endloop
  endfacet
  facet normal  0.000000e+00  0.000000e+00  1.000000e+00
    outer loop
      vertex   3.125000e+00 -5.412650e+01  0.000000e+00
      vertex   1.562500e+01 -5.412650e+01  0.000000e+00
      vertex   9.375000e+00 -4.330120e+01  0.000000e+00
    endloop
  endfacet
  facet normal -0.000000e+00  0.000000e+00  1.000000e+00
    outer loop
      vertex   9.375000e+00 -4.330120e+01  0.000000e+00
      vertex   1.562500e+01 -5.412650e+01  0.000000e+00
      vertex   2.187500e+01 -4.330120e+01  0.000000e+00
    endloop
  endfacet
  facet normal  0.000000e+00  0.000000e+00  1.000000e+00
    outer loop
      vertex   3.125000e+00 -4.330120e+01  0.000000e+00
      vertex   1.562500e+01 -4.330120e+01  0.000000e+00
      vertex   9.375000e+00 -3.247585e+01  0.000000e+00
    endloop
  endfacet
  facet normal -0.000000e+00  0.000000e+00  1.000000e+00
    outer loop
      vertex   9.375000e+00 -3.247585e+01  0.000000e+00
      vertex   1.562500e+01 -4.330120e+01  0.000000e+00
      vertex   2.187500e+01 -3.247585e+01  0.000000e+00
    endloop
  endfacet
  facet normal  0.000000e+00  0.000000e+00  1.000000e+00
    outer loop
      vertex   3.125000e+00 -3.247585e+01  0.000000e+00
      vertex   1.562500e+01 -3.247585e+01  0.000000e+00
      vertex   9.375000e+00 -2.165055e+01  0.000000e+00
    endloop
  endfacet
  facet normal -0.000000e+00  0.000000e+00  1.000000e+00
    outer loop
      vertex   9.375000e+00 -2.165055e+01  0.000000e+00
      vertex   1.562500e+01 -3.247585e+01  0.000000e+00
      vertex   2.187500e+01 -2.165055e+01  0.000000e+00
    endloop
  endfacet
  facet normal  0.000000e+00  0.000000e+00  1.000000e+00
    outer loop
      vertex   3.125000e+00 -2.165055e+01  0.000000e+00
      vertex   1.562500e+01 -2.165055e+01  0.000000e+00
      vertex   9.375000e+00 -1.082525e+01  0.000000e+00
    endloop
  endfacet
  facet normal -0.000000e+00  0.000000e+00  1.000000e+00
    outer loop
      vertex   9.375000e+00 -1.082525e+01  0.000000e+00
      vertex   1.562500e+01 -2.165055e+01  0.000000e+00
      vertex   2.187500e+01 -1.082525e+01  0.000000e+00
    endloop
  endfacet
  facet normal  0.000000e+00  0.000000e+00  1.000000e+00
    outer loop
      vertex   3.125000e+00 -1.082525e+01  0.000000e+00
      vertex   1.562500e+01 -1.082525e+01  0.000000e+00
      vertex   9.375000e+00  0.000000e+00  0.000000e+00
    endloop
  endfacet
  facet normal -0.000000e+00  0.000000e+00  1.000000e+00
    outer loop
      vertex   9.375000e+00  0.000000e+00  0.000000e+00
      vertex   1.562500e+01 -1.082525e+01  0.000000e+00
      vertex   2.187500e+01  0.000000e+00  0.000000e+00
    endloop
  endfacet
  facet normal  0.000000e+00  0.000000e+00  1.000000e+00
    outer loop
      vertex   3.125000e+00  0.000000e+00  0.000000e+00
      vertex   1.562500e+01  0.000000e+00  0.000000e+00
      vertex   9.375000e+00  1.082550e+01  0.000000e+00
    endloop
  endfacet
  facet normal -0.000000e+00  0.000000e+00  1.000000e+00
    outer loop
      vertex   9.375000e+00  1.082550e+01  0.000000e+00
      vertex   1.562500e+01  0.000000e+00  0.000000e+00
      vertex   2.187500e+01  1.082550e+01  0.000000e+00
    endloop
  endfacet
  facet normal  0.000000e+00  0.000000e+00  1.000000e+00
    outer loop
      vertex   3.125000e+00  1.082550e+01  0.000000e+00
      vertex   1.562500e+01  1.082550e+01  0.000000e+00
      vertex   9.375000e+00  2.165050e+01  0.000000e+00
    endloop
  endfacet
  facet normal -0.000000e+00  0.000000e+00  1.000000e+00
    outer loop
      vertex   9.375000e+00  2.165050e+01  0.000000e+00
      vertex   1.562500e+01  1.082550e+01  0.000000e+00
      vertex   2.187500e+01  2.165050e+01  0.000000e+00
    endloop
  endfacet
  facet normal  0.000000e+00  0.000000e+00  1.000000e+00
    outer loop
      vertex   3.125000e+00  2.165050e+01  0.000000e+00
      vertex   1.562500e+01  2.165050e+01  0.000000e+00
      vertex   9.375000e+00  3.247600e+01  0.000000e+00
    endloop
  endfacet
  facet normal -0.000000e+00  0.000000e+00  1.000000e+00
    outer loop
      vertex   9.375000e+00  3.247600e+01  0.000000e+00
      vertex   1.562500e+01  2.165050e+01  0.000000e+00
      vertex   2.187500e+01  3.247600e+01  0.000000e+00
    endloop
  endfacet
  facet normal  0.000000e+00  0.000000e+00  1.000000e+00
    outer loop
      vertex   3.125000e+00  3.247600e+01  0.000000e+00
      vertex   1.562500e+01  3.247600e+01  0.000000e+00
      vertex   9.375000e+00  4.330150e+01  0.000000e+00
    endloop
  endfacet
  facet normal -0.000000e+00  0.000000e+00  1.000000e+00
    outer loop
      vertex   9.375000e+00  4.330150e+01  0.000000e+00
      vertex   1.562500e+01  3.247600e+01  0.000000e+00
      vertex   2.187500e+01  4.330150e+01  0.000000e+00
    endloop
  endfacet
  facet normal  0.000000e+00  0.000000e+00  1.000000e+00
    outer loop
      vertex   3.125000e+00  4.330150e+01  0.000000e+00
      vertex   1.562500e+01  4.330150e+01  0.000000e+00
      vertex   9.375000e+00  5.412650e+01  0.000000e+00
    endloop
  endfacet
  facet normal -0.000000e+00  0.000000e+00  1.000000e+00
    outer loop
      vertex   9.375000e+00  5.412650e+01  0.000000e+00
      vertex   1.562500e+01  4.330150e+01  0.000000e+00
      vertex   2.187500e+01  5.412650e+01  0.000000e+00
    endloop
  endfacet
  facet normal  0.000000e+00  0.000000e+00  1.000000e+00
    outer loop
      vertex   1.562500e+01 -5.412650e+01  0.000000e+00
      vertex   2.812500e+01 -5.412650e+01  0.000000e+00
      vertex   2.187500e+01 -4.330120e+01  0.000000e+00
    endloop
  endfacet
  facet normal -0.000000e+00  0.000000e+00  1.000000e+00
    outer loop
      vertex   2.187500e+01 -4.330120e+01  0.000000e+00
      vertex   2.812500e+01 -5.412650e+01  0.000000e+00
      vertex   3.437500e+01 -4.330120e+01  0.000000e+00
    endloop
  endfacet
  facet normal  0.000000e+00  0.000000e+00  1.000000e+00
    outer loop
      vertex   1.562500e+01 -4.330120e+01  0.000000e+00
      vertex   2.812500e+01 -4.330120e+01  0.000000e+00
      vertex   2.187500e+01 -3.247585e+01  0.000000e+00
    endloop
  endfacet
  facet normal -0.000000e+00  0.000000e+00  1.000000e+00
    outer loop
      vertex   2.187500e+01 -3.247585e+01  0.000000e+00
      vertex   2.812500e+01 -4.330120e+01  0.000000e+00
      vertex   3.437500e+01 -3.247585e+01  0.000000e+00
    endloop
  endfacet
  facet normal  0.000000e+00  0.000000e+00  1.000000e+00
    outer loop
      vertex   1.562500e+01 -3.247585e+01  0.000000e+00
      vertex   2.812500e+01 -3.247585e+01  0.000000e+00
      vertex   2.187500e+01 -2.165055e+01  0.000000e+00
    endloop
  endfacet
  facet normal -0.000000e+00  0.000000e+00  1.000000e+00
    outer loop
      vertex   2.187500e+01 -2.165055e+01  0.000000e+00
      vertex   2.812500e+01 -3.247585e+01  0.000000e+00
      vertex   3.437500e+01 -2.165055e+01  0.000000e+00
    endloop
  endfacet
  facet normal  0.000000e+00  0.000000e+00  1.000000e+00
    outer loop
      vertex   1.562500e+01 -2.165055e+01  0.000000e+00
      vertex   2.812500e+01 -2.165055e+01  0.000000e+00
      vertex   2.187500e+01 -1.082525e+01  0.000000e+00
    endloop
  endfacet
  facet normal -0.000000e+00  0.000000e+00  1.000000e+00
    outer loop
      vertex   2.187500e+01 -1.082525e+01  0.000000e+00
      vertex   2.812500e+01 -2.165055e+01  0.000000e+00
      vertex   3.437500e+01 -1.082525e+01  0.000000e+00
    endloop
  endfacet
  facet normal  0.000000e+00  0.000000e+00  1.000000e+00
    outer loop
      vertex   1.562500e+01 -1.082525e+01  0.000000e+00
      vertex   2.812500e+01 -1.082525e+01  0.000000e+00
      vertex   2.187500e+01  0.000000e+00  0.000000e+00
    endloop
  endfacet
  facet normal -0.000000e+00  0.000000e+00  1.000000e+00
    outer loop
      vertex   2.187500e+01  0.000000e+00  0.000000e+00
      vertex   2.812500e+01 -1.082525e+01  0.000000e+00
      vertex   3.437500e+01  0.000000e+00  0.000000e+00
    endloop
  endfacet
  facet normal  0.000000e+00  0.000000e+00  1.000000e+00
    outer loop
      vertex   1.562500e+01  0.000000e+00  0.000000e+00
      vertex   2.812500e+01  0.000000e+00  0.000000e+00
      vertex   2.187500e+01  1.082550e+01  0.000000e+00
    endloop
  endfacet
  facet normal -0.000000e+00  0.000000e+00  1.000000e+00
    outer loop
      vertex   2.187500e+01  1.082550e+01  0.000000e+00
      vertex   2.812500e+01  0.000000e+00  0.000000e+00
      vertex   3.437500e+01  1.082550e+01  0.000000e+00
    endloop
  endfacet
  facet normal  0.000000e+00  0.000000e+00  1.000000e+00
    outer loop
      vertex   1.562500e+01  1.082550e+01  0.000000e+00
      vertex   2.812500e+01  1.082550e+01  0.000000e+00
      vertex   2.187500e+01  2.165050e+01  0.000000e+00
    endloop
  endfacet
  facet normal -0.000000e+00  0.000000e+00  1.000000e+00
    outer loop
      vertex   2.187500e+01  2.165050e+01  0.000000e+00
      vertex   2.812500e+01  1.082550e+01  0.000000e+00
      vertex   3.437500e+01  2.165050e+01  0.000000e+00
    endloop
  endfacet
  facet normal  0.000000e+00  0.000000e+00  1.000000e+00
    outer loop
      vertex   1.562500e+01  2.165050e+01  0.000000e+00
      vertex   2.812500e+01  2.165050e+01  0.000000e+00
      vertex   2.187500e+01  3.247600e+01  0.000000e+00
    endloop
  endfacet
  facet normal -0.000000e+00  0.000000e+00  1.000000e+00
    outer loop
      vertex   2.187500e+01  3.247600e+01  0.000000e+00
      vertex   2.812500e+01  2.165050e+01  0.000000e+00
      vertex   3.437500e+01  3.247600e+01  0.000000e+00
    endloop
  endfacet
  facet normal  0.000000e+00  0.000000e+00  1.000000e+00
    outer loop
      vertex   1.562500e+01  3.247600e+01  0.000000e+00
      vertex   2.812500e+01  3.247600e+01  0.000000e+00
      vertex   2.187500e+01  4.330150e+01  0.000000e+00
    endloop
  endfacet
  facet normal -0.000000e+00  0.000000e+00  1.000000e+00
    outer loop
      vertex   2.187500e+01  4.330150e+01  0.000000e+00
      vertex   2.812500e+01  3.247600e+01  0.000000e+00
      vertex   3.437500e+01  4.330150e+01  0.000000e+00
    endloop
  endfacet
  facet normal  0.000000e+00  0.000000e+00  1.000000e+00
    outer loop
      vertex   1.562500e+01  4.330150e+01  0.000000e+00
      vertex   2.812500e+01  4.330150e+01  0.000000e+00
      vertex   2.187500e+01  5.412650e+01  0.000000e+00
    endloop
  endfacet
  facet normal -0.000000e+00  0.000000e+00  1.000000e+00
    outer loop
      vertex   2.187500e+01  5.412650e+01  0.000000e+00
      vertex   2.812500e+01  4.330150e+01  0.000000e+00
      vertex   3.437500e+01  5.412650e+01  0.000000e+00
    endloop
  endfacet
endsolid vcg
