solid vcg
  facet normal -1.000000e+00  0.000000e+00  0.000000e+00
    outer loop
      vertex  -1.863719e+00  0.000000e+00  2.572480e+00
      vertex  -1.863719e+00  9.319382e-01  2.572480e+00
      vertex  -1.863719e+00  9.319382e-01  1.715000e+00
    endloop
  endfacet
  facet normal -1.000000e+00  0.000000e+00  0.000000e+00
    outer loop
      vertex  -1.863719e+00  0.000000e+00  8.575198e-01
      vertex  -1.863719e+00 -9.319385e-01  8.575198e-01
      vertex  -1.863719e+00 -9.319385e-01  1.715000e+00
    endloop
  endfacet
  facet normal  0.000000e+00 -1.000000e+00 -0.000000e+00
    outer loop
      vertex  -9.318582e-01 -1.863877e+00  1.715000e+00
      vertex  -9.318593e-01 -1.863877e+00  8.575200e-01
      vertex  -7.177006e-07 -1.863877e+00  8.575200e-01
    endloop
  endfacet
  facet normal  0.000000e+00 -1.000000e+00  0.000000e+00
    outer loop
      vertex   9.318587e-01 -1.863877e+00  1.715000e+00
      vertex   9.318593e-01 -1.863877e+00  2.572480e+00
      vertex   1.025287e-06 -1.863877e+00  2.572480e+00
    endloop
  endfacet
  facet normal  0.000000e+00  0.000000e+00  1.000000e+00
    outer loop
      vertex   1.845515e-06 -9.319386e-01  3.429960e+00
      vertex   9.318604e-01 -9.319386e-01  3.429960e+00
      vertex   9.318604e-01  0.000000e+00  3.429960e+00
    endloop
  endfacet
  facet normal  0.000000e+00  0.000000e+00  1.000000e+00
    outer loop
      vertex   1.845515e-06  9.319392e-01  3.429960e+00
      vertex  -9.318566e-01  9.319392e-01  3.429960e+00
      vertex  -9.318566e-01  0.000000e+00  3.429960e+00
    endloop
  endfacet
  facet normal  0.000000e+00  1.000000e+00  0.000000e+00
    outer loop
      vertex  -9.318582e-01  1.863877e+00  1.715000e+00
      vertex  -9.318576e-01  1.863877e+00  2.572480e+00
      vertex   9.227577e-07  1.863877e+00  2.572480e+00
    endloop
  endfacet
  facet normal  0.000000e+00  1.000000e+00  0.000000e+00
    outer loop
      vertex   9.318587e-01  1.863877e+00  1.715000e+00
      vertex   9.318576e-01  1.863877e+00  8.575200e-01
      vertex  -8.202293e-07  1.863877e+00  8.575200e-01
    endloop
  endfacet
  facet normal  0.000000e+00  0.000000e+00 -1.000000e+00
    outer loop
      vertex  -1.640459e-06 -9.319386e-01  4.005432e-05
      vertex  -9.318604e-01 -9.319386e-01  4.005432e-05
      vertex  -9.318604e-01  0.000000e+00  4.005432e-05
    endloop
  endfacet
  facet normal  0.000000e+00  0.000000e+00 -1.000000e+00
    outer loop
      vertex  -1.640459e-06  9.319392e-01  4.005432e-05
      vertex   9.318569e-01  9.319392e-01  4.005432e-05
      vertex   9.318569e-01  0.000000e+00  4.005432e-05
    endloop
  endfacet
  facet normal  1.000000e+00  0.000000e+00  0.000000e+00
    outer loop
      vertex   1.863715e+00  0.000000e+00  2.572480e+00
      vertex   1.863715e+00 -9.319385e-01  2.572480e+00
      vertex   1.863715e+00 -9.319385e-01  1.715000e+00
    endloop
  endfacet
  facet normal  1.000000e+00  0.000000e+00  0.000000e+00
    outer loop
      vertex   1.863715e+00  0.000000e+00  8.575198e-01
      vertex   1.863715e+00  9.319382e-01  8.575198e-01
      vertex   1.863715e+00  9.319382e-01  1.715000e+00
    endloop
  endfacet
  facet normal -1.000000e+00  0.000000e+00  0.000000e+00
    outer loop
      vertex  -1.863719e+00  9.319382e-01  8.575198e-01
      vertex  -1.863719e+00  9.319382e-01  1.715000e+00
      vertex  -1.863719e+00  1.863877e+00  8.575198e-01
    endloop
  endfacet
  facet normal -1.000000e+00  0.000000e+00  3.614593e-06
    outer loop
      vertex  -1.863719e+00 -9.319385e-01  2.572480e+00
      vertex  -1.863715e+00 -9.319385e-01  3.429960e+00
      vertex  -1.863719e+00  0.000000e+00  2.572480e+00
    endloop
  endfacet
  facet normal -1.000000e+00  0.000000e+00  3.614593e-06
    outer loop
      vertex  -1.863719e+00  9.319382e-01  2.572480e+00
      vertex  -1.863715e+00  9.319382e-01  3.429960e+00
      vertex  -1.863719e+00  1.863877e+00  2.572480e+00
    endloop
  endfacet
  facet normal -1.000000e+00 -0.000000e+00 -0.000000e+00
    outer loop
      vertex  -1.863719e+00 -9.319385e-01  2.572480e+00
      vertex  -1.863719e+00 -9.319385e-01  1.715000e+00
      vertex  -1.863719e+00 -1.863877e+00  2.572480e+00
    endloop
  endfacet
  facet normal -1.000000e+00 -0.000000e+00 -0.000000e+00
    outer loop
      vertex  -1.863719e+00  9.319382e-01  8.575198e-01
      vertex  -1.863719e+00  9.319382e-01  4.005432e-05
      vertex  -1.863719e+00  0.000000e+00  8.575198e-01
    endloop
  endfacet
  facet normal -1.000000e+00 -0.000000e+00 -0.000000e+00
    outer loop
      vertex  -1.863719e+00 -9.319385e-01  8.575198e-01
      vertex  -1.863719e+00 -9.319385e-01  4.005432e-05
      vertex  -1.863719e+00 -1.863877e+00  8.575198e-01
    endloop
  endfacet
  facet normal  1.000000e+00  0.000000e+00 -0.000000e+00
    outer loop
      vertex   1.863715e+00 -9.319385e-01  8.575198e-01
      vertex   1.863715e+00 -9.319385e-01  1.715000e+00
      vertex   1.863715e+00 -1.863877e+00  8.575198e-01
    endloop
  endfacet
  facet normal  1.000000e+00  0.000000e+00 -3.614593e-06
    outer loop
      vertex   1.863715e+00  9.319382e-01  2.572480e+00
      vertex   1.863719e+00  9.319382e-01  3.429960e+00
      vertex   1.863715e+00  0.000000e+00  2.572480e+00
    endloop
  endfacet
  facet normal  1.000000e+00  0.000000e+00 -3.614593e-06
    outer loop
      vertex   1.863715e+00 -9.319385e-01  2.572480e+00
      vertex   1.863719e+00 -9.319385e-01  3.429960e+00
      vertex   1.863715e+00 -1.863877e+00  2.572480e+00
    endloop
  endfacet
  facet normal  1.000000e+00 -0.000000e+00  0.000000e+00
    outer loop
      vertex   1.863715e+00  9.319382e-01  2.572480e+00
      vertex   1.863715e+00  9.319382e-01  1.715000e+00
      vertex   1.863715e+00  1.863877e+00  2.572480e+00
    endloop
  endfacet
  facet normal  1.000000e+00 -0.000000e+00  0.000000e+00
    outer loop
      vertex   1.863715e+00 -9.319385e-01  8.575198e-01
      vertex   1.863715e+00 -9.319385e-01  4.005432e-05
      vertex   1.863715e+00  0.000000e+00  8.575198e-01
    endloop
  endfacet
  facet normal  1.000000e+00 -0.000000e+00  0.000000e+00
    outer loop
      vertex   1.863715e+00  9.319382e-01  8.575198e-01
      vertex   1.863715e+00  9.319382e-01  4.005432e-05
      vertex   1.863715e+00  1.863877e+00  8.575198e-01
    endloop
  endfacet
  facet normal -1.000000e+00  0.000000e+00  0.000000e+00
    outer loop
      vertex  -1.863719e+00  0.000000e+00  1.715000e+00
      vertex  -1.863719e+00  0.000000e+00  2.572480e+00
      vertex  -1.863719e+00  9.319382e-01  1.715000e+00
    endloop
  endfacet
  facet normal -1.000000e+00  0.000000e+00  3.614593e-06
    outer loop
      vertex  -1.863719e+00  0.000000e+00  2.572480e+00
      vertex  -1.863715e+00  0.000000e+00  3.429960e+00
      vertex  -1.863719e+00  9.319382e-01  2.572480e+00
    endloop
  endfacet
  facet normal -1.000000e+00  0.000000e+00  0.000000e+00
    outer loop
      vertex  -1.863719e+00  9.319382e-01  1.715000e+00
      vertex  -1.863719e+00  9.319382e-01  2.572480e+00
      vertex  -1.863719e+00  1.863877e+00  1.715000e+00
    endloop
  endfacet
  facet normal -1.000000e+00 -0.000000e+00 -0.000000e+00
    outer loop
      vertex  -1.863719e+00  0.000000e+00  1.715000e+00
      vertex  -1.863719e+00  0.000000e+00  8.575198e-01
      vertex  -1.863719e+00 -9.319385e-01  1.715000e+00
    endloop
  endfacet
  facet normal -1.000000e+00 -0.000000e+00 -0.000000e+00
    outer loop
      vertex  -1.863719e+00  0.000000e+00  8.575198e-01
      vertex  -1.863719e+00  0.000000e+00  4.005432e-05
      vertex  -1.863719e+00 -9.319385e-01  8.575198e-01
    endloop
  endfacet
  facet normal -1.000000e+00 -0.000000e+00 -0.000000e+00
    outer loop
      vertex  -1.863719e+00 -9.319385e-01  1.715000e+00
      vertex  -1.863719e+00 -9.319385e-01  8.575198e-01
      vertex  -1.863719e+00 -1.863877e+00  1.715000e+00
    endloop
  endfacet
  facet normal  1.000000e+00  0.000000e+00 -0.000000e+00
    outer loop
      vertex   1.863715e+00  0.000000e+00  1.715000e+00
      vertex   1.863715e+00  0.000000e+00  2.572480e+00
      vertex   1.863715e+00 -9.319385e-01  1.715000e+00
    endloop
  endfacet
  facet normal  1.000000e+00  0.000000e+00 -3.614593e-06
    outer loop
      vertex   1.863715e+00  0.000000e+00  2.572480e+00
      vertex   1.863719e+00  0.000000e+00  3.429960e+00
      vertex   1.863715e+00 -9.319385e-01  2.572480e+00
    endloop
  endfacet
  facet normal  1.000000e+00  0.000000e+00 -0.000000e+00
    outer loop
      vertex   1.863715e+00 -9.319385e-01  1.715000e+00
      vertex   1.863715e+00 -9.319385e-01  2.572480e+00
      vertex   1.863715e+00 -1.863877e+00  1.715000e+00
    endloop
  endfacet
  facet normal  1.000000e+00 -0.000000e+00  0.000000e+00
    outer loop
      vertex   1.863715e+00  0.000000e+00  1.715000e+00
      vertex   1.863715e+00  0.000000e+00  8.575198e-01
      vertex   1.863715e+00  9.319382e-01  1.715000e+00
    endloop
  endfacet
  facet normal  1.000000e+00 -0.000000e+00  0.000000e+00
    outer loop
      vertex   1.863715e+00  0.000000e+00  8.575198e-01
      vertex   1.863715e+00  0.000000e+00  4.005432e-05
      vertex   1.863715e+00  9.319382e-01  8.575198e-01
    endloop
  endfacet
  facet normal  1.000000e+00 -0.000000e+00  0.000000e+00
    outer loop
      vertex   1.863715e+00  9.319382e-01  1.715000e+00
      vertex   1.863715e+00  9.319382e-01  8.575198e-01
      vertex   1.863715e+00  1.863877e+00  1.715000e+00
    endloop
  endfacet
  facet normal -1.000000e+00  0.000000e+00  0.000000e+00
    outer loop
      vertex  -1.863719e+00  1.863877e+00  4.005432e-05
      vertex  -1.863719e+00  9.319382e-01  8.575198e-01
      vertex  -1.863719e+00  1.863877e+00  8.575198e-01
    endloop
  endfacet
  facet normal -1.000000e+00  0.000000e+00  0.000000e+00
    outer loop
      vertex  -1.863719e+00  9.319382e-01  8.575198e-01
      vertex  -1.863719e+00  0.000000e+00  1.715000e+00
      vertex  -1.863719e+00  9.319382e-01  1.715000e+00
    endloop
  endfacet
  facet normal -1.000000e+00  0.000000e+00  0.000000e+00
    outer loop
      vertex  -1.863719e+00  1.863877e+00  8.575198e-01
      vertex  -1.863719e+00  9.319382e-01  1.715000e+00
      vertex  -1.863719e+00  1.863877e+00  1.715000e+00
    endloop
  endfacet
  facet normal -1.000000e+00  0.000000e+00  0.000000e+00
    outer loop
      vertex  -1.863719e+00  0.000000e+00  1.715000e+00
      vertex  -1.863719e+00 -9.319385e-01  2.572480e+00
      vertex  -1.863719e+00  0.000000e+00  2.572480e+00
    endloop
  endfacet
  facet normal -1.000000e+00  0.000000e+00  3.614593e-06
    outer loop
      vertex  -1.863719e+00 -9.319385e-01  2.572480e+00
      vertex  -1.863715e+00 -1.863877e+00  3.429960e+00
      vertex  -1.863715e+00 -9.319385e-01  3.429960e+00
    endloop
  endfacet
  facet normal -1.000000e+00  0.000000e+00  3.614593e-06
    outer loop
      vertex  -1.863719e+00  0.000000e+00  2.572480e+00
      vertex  -1.863715e+00 -9.319385e-01  3.429960e+00
      vertex  -1.863715e+00  0.000000e+00  3.429960e+00
    endloop
  endfacet
  facet normal -1.000000e+00  0.000000e+00  0.000000e+00
    outer loop
      vertex  -1.863719e+00  1.863877e+00  1.715000e+00
      vertex  -1.863719e+00  9.319382e-01  2.572480e+00
      vertex  -1.863719e+00  1.863877e+00  2.572480e+00
    endloop
  endfacet
  facet normal -1.000000e+00  0.000000e+00  3.614593e-06
    outer loop
      vertex  -1.863719e+00  9.319382e-01  2.572480e+00
      vertex  -1.863715e+00  0.000000e+00  3.429960e+00
      vertex  -1.863715e+00  9.319382e-01  3.429960e+00
    endloop
  endfacet
  facet normal -1.000000e+00  0.000000e+00  3.614593e-06
    outer loop
      vertex  -1.863719e+00  1.863877e+00  2.572480e+00
      vertex  -1.863715e+00  9.319382e-01  3.429960e+00
      vertex  -1.863715e+00  1.863877e+00  3.429960e+00
    endloop
  endfacet
  facet normal -1.000000e+00  0.000000e+00  3.614593e-06
    outer loop
      vertex  -1.863715e+00 -1.863877e+00  3.429960e+00
      vertex  -1.863719e+00 -9.319385e-01  2.572480e+00
      vertex  -1.863719e+00 -1.863877e+00  2.572480e+00
    endloop
  endfacet
  facet normal -1.000000e+00  0.000000e+00  0.000000e+00
    outer loop
      vertex  -1.863719e+00 -9.319385e-01  2.572480e+00
      vertex  -1.863719e+00  0.000000e+00  1.715000e+00
      vertex  -1.863719e+00 -9.319385e-01  1.715000e+00
    endloop
  endfacet
  facet normal -1.000000e+00  0.000000e+00  0.000000e+00
    outer loop
      vertex  -1.863719e+00 -1.863877e+00  2.572480e+00
      vertex  -1.863719e+00 -9.319385e-01  1.715000e+00
      vertex  -1.863719e+00 -1.863877e+00  1.715000e+00
    endloop
  endfacet
  facet normal -1.000000e+00  0.000000e+00  0.000000e+00
    outer loop
      vertex  -1.863719e+00  0.000000e+00  1.715000e+00
      vertex  -1.863719e+00  9.319382e-01  8.575198e-01
      vertex  -1.863719e+00  0.000000e+00  8.575198e-01
    endloop
  endfacet
  facet normal -1.000000e+00  0.000000e+00  0.000000e+00
    outer loop
      vertex  -1.863719e+00  9.319382e-01  8.575198e-01
      vertex  -1.863719e+00  1.863877e+00  4.005432e-05
      vertex  -1.863719e+00  9.319382e-01  4.005432e-05
    endloop
  endfacet
  facet normal -1.000000e+00  0.000000e+00  0.000000e+00
    outer loop
      vertex  -1.863719e+00  0.000000e+00  8.575198e-01
      vertex  -1.863719e+00  9.319382e-01  4.005432e-05
      vertex  -1.863719e+00  0.000000e+00  4.005432e-05
    endloop
  endfacet
  facet normal -1.000000e+00  0.000000e+00  0.000000e+00
    outer loop
      vertex  -1.863719e+00 -1.863877e+00  1.715000e+00
      vertex  -1.863719e+00 -9.319385e-01  8.575198e-01
      vertex  -1.863719e+00 -1.863877e+00  8.575198e-01
    endloop
  endfacet
  facet normal -1.000000e+00  0.000000e+00  0.000000e+00
    outer loop
      vertex  -1.863719e+00 -9.319385e-01  8.575198e-01
      vertex  -1.863719e+00  0.000000e+00  4.005432e-05
      vertex  -1.863719e+00 -9.319385e-01  4.005432e-05
    endloop
  endfacet
  facet normal -1.000000e+00  0.000000e+00  0.000000e+00
    outer loop
      vertex  -1.863719e+00 -1.863877e+00  8.575198e-01
      vertex  -1.863719e+00 -9.319385e-01  4.005432e-05
      vertex  -1.863719e+00 -1.863877e+00  4.005432e-05
    endloop
  endfacet
  facet normal  1.000000e+00  0.000000e+00  0.000000e+00
    outer loop
      vertex   1.863715e+00 -1.863877e+00  4.005432e-05
      vertex   1.863715e+00 -9.319385e-01  8.575198e-01
      vertex   1.863715e+00 -1.863877e+00  8.575198e-01
    endloop
  endfacet
  facet normal  1.000000e+00  0.000000e+00  0.000000e+00
    outer loop
      vertex   1.863715e+00 -9.319385e-01  8.575198e-01
      vertex   1.863715e+00  0.000000e+00  1.715000e+00
      vertex   1.863715e+00 -9.319385e-01  1.715000e+00
    endloop
  endfacet
  facet normal  1.000000e+00  0.000000e+00  0.000000e+00
    outer loop
      vertex   1.863715e+00 -1.863877e+00  8.575198e-01
      vertex   1.863715e+00 -9.319385e-01  1.715000e+00
      vertex   1.863715e+00 -1.863877e+00  1.715000e+00
    endloop
  endfacet
  facet normal  1.000000e+00  0.000000e+00  0.000000e+00
    outer loop
      vertex   1.863715e+00  0.000000e+00  1.715000e+00
      vertex   1.863715e+00  9.319382e-01  2.572480e+00
      vertex   1.863715e+00  0.000000e+00  2.572480e+00
    endloop
  endfacet
  facet normal  1.000000e+00  0.000000e+00 -3.614593e-06
    outer loop
      vertex   1.863715e+00  9.319382e-01  2.572480e+00
      vertex   1.863719e+00  1.863877e+00  3.429960e+00
      vertex   1.863719e+00  9.319382e-01  3.429960e+00
    endloop
  endfacet
  facet normal  1.000000e+00  0.000000e+00 -3.614593e-06
    outer loop
      vertex   1.863715e+00  0.000000e+00  2.572480e+00
      vertex   1.863719e+00  9.319382e-01  3.429960e+00
      vertex   1.863719e+00  0.000000e+00  3.429960e+00
    endloop
  endfacet
  facet normal  1.000000e+00  0.000000e+00  0.000000e+00
    outer loop
      vertex   1.863715e+00 -1.863877e+00  1.715000e+00
      vertex   1.863715e+00 -9.319385e-01  2.572480e+00
      vertex   1.863715e+00 -1.863877e+00  2.572480e+00
    endloop
  endfacet
  facet normal  1.000000e+00  0.000000e+00 -3.614593e-06
    outer loop
      vertex   1.863715e+00 -9.319385e-01  2.572480e+00
      vertex   1.863719e+00  0.000000e+00  3.429960e+00
      vertex   1.863719e+00 -9.319385e-01  3.429960e+00
    endloop
  endfacet
  facet normal  1.000000e+00  0.000000e+00 -3.614593e-06
    outer loop
      vertex   1.863715e+00 -1.863877e+00  2.572480e+00
      vertex   1.863719e+00 -9.319385e-01  3.429960e+00
      vertex   1.863719e+00 -1.863877e+00  3.429960e+00
    endloop
  endfacet
  facet normal  1.000000e+00  0.000000e+00 -3.614593e-06
    outer loop
      vertex   1.863719e+00  1.863877e+00  3.429960e+00
      vertex   1.863715e+00  9.319382e-01  2.572480e+00
      vertex   1.863715e+00  1.863877e+00  2.572480e+00
    endloop
  endfacet
  facet normal  1.000000e+00  0.000000e+00  0.000000e+00
    outer loop
      vertex   1.863715e+00  9.319382e-01  2.572480e+00
      vertex   1.863715e+00  0.000000e+00  1.715000e+00
      vertex   1.863715e+00  9.319382e-01  1.715000e+00
    endloop
  endfacet
  facet normal  1.000000e+00  0.000000e+00  0.000000e+00
    outer loop
      vertex   1.863715e+00  1.863877e+00  2.572480e+00
      vertex   1.863715e+00  9.319382e-01  1.715000e+00
      vertex   1.863715e+00  1.863877e+00  1.715000e+00
    endloop
  endfacet
  facet normal  1.000000e+00  0.000000e+00  0.000000e+00
    outer loop
      vertex   1.863715e+00  0.000000e+00  1.715000e+00
      vertex   1.863715e+00 -9.319385e-01  8.575198e-01
      vertex   1.863715e+00  0.000000e+00  8.575198e-01
    endloop
  endfacet
  facet normal  1.000000e+00  0.000000e+00  0.000000e+00
    outer loop
      vertex   1.863715e+00 -9.319385e-01  8.575198e-01
      vertex   1.863715e+00 -1.863877e+00  4.005432e-05
      vertex   1.863715e+00 -9.319385e-01  4.005432e-05
    endloop
  endfacet
  facet normal  1.000000e+00  0.000000e+00  0.000000e+00
    outer loop
      vertex   1.863715e+00  0.000000e+00  8.575198e-01
      vertex   1.863715e+00 -9.319385e-01  4.005432e-05
      vertex   1.863715e+00  0.000000e+00  4.005432e-05
    endloop
  endfacet
  facet normal  1.000000e+00  0.000000e+00  0.000000e+00
    outer loop
      vertex   1.863715e+00  1.863877e+00  1.715000e+00
      vertex   1.863715e+00  9.319382e-01  8.575198e-01
      vertex   1.863715e+00  1.863877e+00  8.575198e-01
    endloop
  endfacet
  facet normal  1.000000e+00  0.000000e+00  0.000000e+00
    outer loop
      vertex   1.863715e+00  9.319382e-01  8.575198e-01
      vertex   1.863715e+00  0.000000e+00  4.005432e-05
      vertex   1.863715e+00  9.319382e-01  4.005432e-05
    endloop
  endfacet
  facet normal  1.000000e+00  0.000000e+00  0.000000e+00
    outer loop
      vertex   1.863715e+00  1.863877e+00  8.575198e-01
      vertex   1.863715e+00  9.319382e-01  4.005432e-05
      vertex   1.863715e+00  1.863877e+00  4.005432e-05
    endloop
  endfacet
  facet normal -0.000000e+00 -1.000000e+00  0.000000e+00
    outer loop
      vertex   9.318579e-01 -1.863877e+00  8.575200e-01
      vertex  -7.177006e-07 -1.863877e+00  8.575200e-01
      vertex   9.318569e-01 -1.863877e+00  4.005432e-05
    endloop
  endfacet
  facet normal -0.000000e+00 -1.000000e+00  0.000000e+00
    outer loop
      vertex  -9.318572e-01 -1.863877e+00  2.572480e+00
      vertex  -1.863715e+00 -1.863877e+00  2.572480e+00
      vertex  -9.318582e-01 -1.863877e+00  1.715000e+00
    endloop
  endfacet
  facet normal -0.000000e+00 -1.000000e+00  0.000000e+00
    outer loop
      vertex  -9.318593e-01 -1.863877e+00  8.575200e-01
      vertex  -1.863717e+00 -1.863877e+00  8.575200e-01
      vertex  -9.318604e-01 -1.863877e+00  4.005432e-05
    endloop
  endfacet
  facet normal  0.000000e+00 -1.000000e+00  0.000000e+00
    outer loop
      vertex  -9.318572e-01 -1.863877e+00  2.572480e+00
      vertex   1.025287e-06 -1.863877e+00  2.572480e+00
      vertex  -9.318566e-01 -1.863877e+00  3.429960e+00
    endloop
  endfacet
  facet normal  0.000000e+00 -1.000000e+00  0.000000e+00
    outer loop
      vertex   9.318579e-01 -1.863877e+00  8.575200e-01
      vertex   1.863716e+00 -1.863877e+00  8.575200e-01
      vertex   9.318587e-01 -1.863877e+00  1.715000e+00
    endloop
  endfacet
  facet normal  0.000000e+00 -1.000000e+00  0.000000e+00
    outer loop
      vertex   9.318593e-01 -1.863877e+00  2.572480e+00
      vertex   1.863717e+00 -1.863877e+00  2.572480e+00
      vertex   9.318604e-01 -1.863877e+00  3.429960e+00
    endloop
  endfacet
  facet normal -0.000000e+00  0.000000e+00  1.000000e+00
    outer loop
      vertex   9.318604e-01  9.319392e-01  3.429960e+00
      vertex   9.318604e-01  0.000000e+00  3.429960e+00
      vertex   1.863719e+00  9.319392e-01  3.429960e+00
    endloop
  endfacet
  facet normal -0.000000e+00  0.000000e+00  1.000000e+00
    outer loop
      vertex  -9.318566e-01 -9.319386e-01  3.429960e+00
      vertex  -9.318566e-01 -1.863877e+00  3.429960e+00
      vertex   1.845515e-06 -9.319386e-01  3.429960e+00
    endloop
  endfacet
  facet normal -0.000000e+00  0.000000e+00  1.000000e+00
    outer loop
      vertex   9.318604e-01 -9.319386e-01  3.429960e+00
      vertex   9.318604e-01 -1.863877e+00  3.429960e+00
      vertex   1.863719e+00 -9.319386e-01  3.429960e+00
    endloop
  endfacet
  facet normal  0.000000e+00 -0.000000e+00  1.000000e+00
    outer loop
      vertex  -9.318566e-01 -9.319386e-01  3.429960e+00
      vertex  -9.318566e-01  0.000000e+00  3.429960e+00
      vertex  -1.863715e+00 -9.319386e-01  3.429960e+00
    endloop
  endfacet
  facet normal  0.000000e+00 -0.000000e+00  1.000000e+00
    outer loop
      vertex   9.318604e-01  9.319392e-01  3.429960e+00
      vertex   9.318604e-01  1.863877e+00  3.429960e+00
      vertex   1.845515e-06  9.319392e-01  3.429960e+00
    endloop
  endfacet
  facet normal  0.000000e+00 -0.000000e+00  1.000000e+00
    outer loop
      vertex  -9.318566e-01  9.319392e-01  3.429960e+00
      vertex  -9.318566e-01  1.863877e+00  3.429960e+00
      vertex  -1.863715e+00  9.319392e-01  3.429960e+00
    endloop
  endfacet
  facet normal  0.000000e+00  1.000000e+00 -0.000000e+00
    outer loop
      vertex   9.318593e-01  1.863877e+00  2.572480e+00
      vertex   9.227577e-07  1.863877e+00  2.572480e+00
      vertex   9.318604e-01  1.863877e+00  3.429960e+00
    endloop
  endfacet
  facet normal  0.000000e+00  1.000000e+00 -0.000000e+00
    outer loop
      vertex  -9.318593e-01  1.863877e+00  8.575200e-01
      vertex  -1.863717e+00  1.863877e+00  8.575200e-01
      vertex  -9.318582e-01  1.863877e+00  1.715000e+00
    endloop
  endfacet
  facet normal  0.000000e+00  1.000000e+00 -0.000000e+00
    outer loop
      vertex  -9.318576e-01  1.863877e+00  2.572480e+00
      vertex  -1.863715e+00  1.863877e+00  2.572480e+00
      vertex  -9.318566e-01  1.863877e+00  3.429960e+00
    endloop
  endfacet
  facet normal -0.000000e+00  1.000000e+00  0.000000e+00
    outer loop
      vertex  -9.318593e-01  1.863877e+00  8.575200e-01
      vertex  -8.202293e-07  1.863877e+00  8.575200e-01
      vertex  -9.318604e-01  1.863877e+00  4.005432e-05
    endloop
  endfacet
  facet normal -0.000000e+00  1.000000e+00  0.000000e+00
    outer loop
      vertex   9.318593e-01  1.863877e+00  2.572480e+00
      vertex   1.863717e+00  1.863877e+00  2.572480e+00
      vertex   9.318587e-01  1.863877e+00  1.715000e+00
    endloop
  endfacet
  facet normal -0.000000e+00  1.000000e+00  0.000000e+00
    outer loop
      vertex   9.318576e-01  1.863877e+00  8.575200e-01
      vertex   1.863716e+00  1.863877e+00  8.575200e-01
      vertex   9.318569e-01  1.863877e+00  4.005432e-05
    endloop
  endfacet
  facet normal -0.000000e+00 -0.000000e+00 -1.000000e+00
    outer loop
      vertex  -9.318604e-01  9.319392e-01  4.005432e-05
      vertex  -9.318604e-01  0.000000e+00  4.005432e-05
      vertex  -1.863719e+00  9.319392e-01  4.005432e-05
    endloop
  endfacet
  facet normal -0.000000e+00 -0.000000e+00 -1.000000e+00
    outer loop
      vertex   9.318569e-01 -9.319386e-01  4.005432e-05
      vertex   9.318569e-01 -1.863877e+00  4.005432e-05
      vertex  -1.640459e-06 -9.319386e-01  4.005432e-05
    endloop
  endfacet
  facet normal -0.000000e+00 -0.000000e+00 -1.000000e+00
    outer loop
      vertex  -9.318604e-01 -9.319386e-01  4.005432e-05
      vertex  -9.318604e-01 -1.863877e+00  4.005432e-05
      vertex  -1.863719e+00 -9.319386e-01  4.005432e-05
    endloop
  endfacet
  facet normal  0.000000e+00  0.000000e+00 -1.000000e+00
    outer loop
      vertex   9.318569e-01 -9.319386e-01  4.005432e-05
      vertex   9.318569e-01  0.000000e+00  4.005432e-05
      vertex   1.863715e+00 -9.319386e-01  4.005432e-05
    endloop
  endfacet
  facet normal  0.000000e+00  0.000000e+00 -1.000000e+00
    outer loop
      vertex  -9.318604e-01  9.319392e-01  4.005432e-05
      vertex  -9.318604e-01  1.863877e+00  4.005432e-05
      vertex  -1.640459e-06  9.319392e-01  4.005432e-05
    endloop
  endfacet
  facet normal  0.000000e+00  0.000000e+00 -1.000000e+00
    outer loop
      vertex   9.318569e-01  9.319392e-01  4.005432e-05
      vertex   9.318569e-01  1.863877e+00  4.005432e-05
      vertex   1.863715e+00  9.319392e-01  4.005432e-05
    endloop
  endfacet
  facet normal -0.000000e+00 -1.000000e+00  0.000000e+00
    outer loop
      vertex   2.050572e-07 -1.863877e+00  1.715000e+00
      vertex  -9.318582e-01 -1.863877e+00  1.715000e+00
      vertex  -7.177006e-07 -1.863877e+00  8.575200e-01
    endloop
  endfacet
  facet normal -0.000000e+00 -1.000000e+00  0.000000e+00
    outer loop
      vertex  -9.318582e-01 -1.863877e+00  1.715000e+00
      vertex  -1.863716e+00 -1.863877e+00  1.715000e+00
      vertex  -9.318593e-01 -1.863877e+00  8.575200e-01
    endloop
  endfacet
  facet normal -0.000000e+00 -1.000000e+00  0.000000e+00
    outer loop
      vertex  -7.177006e-07 -1.863877e+00  8.575200e-01
      vertex  -9.318593e-01 -1.863877e+00  8.575200e-01
      vertex  -1.640459e-06 -1.863877e+00  4.005432e-05
    endloop
  endfacet
  facet normal  0.000000e+00 -1.000000e+00  0.000000e+00
    outer loop
      vertex   2.050572e-07 -1.863877e+00  1.715000e+00
      vertex   9.318587e-01 -1.863877e+00  1.715000e+00
      vertex   1.025287e-06 -1.863877e+00  2.572480e+00
    endloop
  endfacet
  facet normal  0.000000e+00 -1.000000e+00  0.000000e+00
    outer loop
      vertex   9.318587e-01 -1.863877e+00  1.715000e+00
      vertex   1.863716e+00 -1.863877e+00  1.715000e+00
      vertex   9.318593e-01 -1.863877e+00  2.572480e+00
    endloop
  endfacet
  facet normal  0.000000e+00 -1.000000e+00  0.000000e+00
    outer loop
      vertex   1.025287e-06 -1.863877e+00  2.572480e+00
      vertex   9.318593e-01 -1.863877e+00  2.572480e+00
      vertex   1.845515e-06 -1.863877e+00  3.429960e+00
    endloop
  endfacet
  facet normal -0.000000e+00  0.000000e+00  1.000000e+00
    outer loop
      vertex   1.845515e-06  0.000000e+00  3.429960e+00
      vertex   1.845515e-06 -9.319386e-01  3.429960e+00
      vertex   9.318604e-01  0.000000e+00  3.429960e+00
    endloop
  endfacet
  facet normal -0.000000e+00  0.000000e+00  1.000000e+00
    outer loop
      vertex   1.845515e-06 -9.319386e-01  3.429960e+00
      vertex   1.845515e-06 -1.863877e+00  3.429960e+00
      vertex   9.318604e-01 -9.319386e-01  3.429960e+00
    endloop
  endfacet
  facet normal -0.000000e+00  0.000000e+00  1.000000e+00
    outer loop
      vertex   9.318604e-01  0.000000e+00  3.429960e+00
      vertex   9.318604e-01 -9.319386e-01  3.429960e+00
      vertex   1.863719e+00  0.000000e+00  3.429960e+00
    endloop
  endfacet
  facet normal  0.000000e+00 -0.000000e+00  1.000000e+00
    outer loop
      vertex   1.845515e-06  0.000000e+00  3.429960e+00
      vertex   1.845515e-06  9.319392e-01  3.429960e+00
      vertex  -9.318566e-01  0.000000e+00  3.429960e+00
    endloop
  endfacet
  facet normal  0.000000e+00 -0.000000e+00  1.000000e+00
    outer loop
      vertex   1.845515e-06  9.319392e-01  3.429960e+00
      vertex   1.845515e-06  1.863877e+00  3.429960e+00
      vertex  -9.318566e-01  9.319392e-01  3.429960e+00
    endloop
  endfacet
  facet normal  0.000000e+00 -0.000000e+00  1.000000e+00
    outer loop
      vertex  -9.318566e-01  0.000000e+00  3.429960e+00
      vertex  -9.318566e-01  9.319392e-01  3.429960e+00
      vertex  -1.863715e+00  0.000000e+00  3.429960e+00
    endloop
  endfacet
  facet normal  0.000000e+00  1.000000e+00 -0.000000e+00
    outer loop
      vertex   0.000000e+00  1.863877e+00  1.715000e+00
      vertex  -9.318582e-01  1.863877e+00  1.715000e+00
      vertex   9.227577e-07  1.863877e+00  2.572480e+00
    endloop
  endfacet
  facet normal  0.000000e+00  1.000000e+00 -0.000000e+00
    outer loop
      vertex  -9.318582e-01  1.863877e+00  1.715000e+00
      vertex  -1.863716e+00  1.863877e+00  1.715000e+00
      vertex  -9.318576e-01  1.863877e+00  2.572480e+00
    endloop
  endfacet
  facet normal  0.000000e+00  1.000000e+00 -0.000000e+00
    outer loop
      vertex   9.227577e-07  1.863877e+00  2.572480e+00
      vertex  -9.318576e-01  1.863877e+00  2.572480e+00
      vertex   1.845515e-06  1.863877e+00  3.429960e+00
    endloop
  endfacet
  facet normal -0.000000e+00  1.000000e+00  0.000000e+00
    outer loop
      vertex   0.000000e+00  1.863877e+00  1.715000e+00
      vertex   9.318587e-01  1.863877e+00  1.715000e+00
      vertex  -8.202293e-07  1.863877e+00  8.575200e-01
    endloop
  endfacet
  facet normal -0.000000e+00  1.000000e+00  0.000000e+00
    outer loop
      vertex   9.318587e-01  1.863877e+00  1.715000e+00
      vertex   1.863716e+00  1.863877e+00  1.715000e+00
      vertex   9.318576e-01  1.863877e+00  8.575200e-01
    endloop
  endfacet
  facet normal -0.000000e+00  1.000000e+00  0.000000e+00
    outer loop
      vertex  -8.202293e-07  1.863877e+00  8.575200e-01
      vertex   9.318576e-01  1.863877e+00  8.575200e-01
      vertex  -1.640459e-06  1.863877e+00  4.005432e-05
    endloop
  endfacet
  facet normal -0.000000e+00 -0.000000e+00 -1.000000e+00
    outer loop
      vertex  -1.640459e-06  0.000000e+00  4.005432e-05
      vertex  -1.640459e-06 -9.319386e-01  4.005432e-05
      vertex  -9.318604e-01  0.000000e+00  4.005432e-05
    endloop
  endfacet
  facet normal -0.000000e+00 -0.000000e+00 -1.000000e+00
    outer loop
      vertex  -1.640459e-06 -9.319386e-01  4.005432e-05
      vertex  -1.640459e-06 -1.863877e+00  4.005432e-05
      vertex  -9.318604e-01 -9.319386e-01  4.005432e-05
    endloop
  endfacet
  facet normal -0.000000e+00 -0.000000e+00 -1.000000e+00
    outer loop
      vertex  -9.318604e-01  0.000000e+00  4.005432e-05
      vertex  -9.318604e-01 -9.319386e-01  4.005432e-05
      vertex  -1.863719e+00  0.000000e+00  4.005432e-05
    endloop
  endfacet
  facet normal  0.000000e+00  0.000000e+00 -1.000000e+00
    outer loop
      vertex  -1.640459e-06  0.000000e+00  4.005432e-05
      vertex  -1.640459e-06  9.319392e-01  4.005432e-05
      vertex   9.318569e-01  0.000000e+00  4.005432e-05
    endloop
  endfacet
  facet normal  0.000000e+00  0.000000e+00 -1.000000e+00
    outer loop
      vertex  -1.640459e-06  9.319392e-01  4.005432e-05
      vertex  -1.640459e-06  1.863877e+00  4.005432e-05
      vertex   9.318569e-01  9.319392e-01  4.005432e-05
    endloop
  endfacet
  facet normal  0.000000e+00  0.000000e+00 -1.000000e+00
    outer loop
      vertex   9.318569e-01  0.000000e+00  4.005432e-05
      vertex   9.318569e-01  9.319392e-01  4.005432e-05
      vertex   1.863715e+00  0.000000e+00  4.005432e-05
    endloop
  endfacet
  facet normal  0.000000e+00 -1.000000e+00  0.000000e+00
    outer loop
      vertex   1.863715e+00 -1.863877e+00  4.005432e-05
      vertex   9.318579e-01 -1.863877e+00  8.575200e-01
      vertex   9.318569e-01 -1.863877e+00  4.005432e-05
    endloop
  endfacet
  facet normal  0.000000e+00 -1.000000e+00  0.000000e+00
    outer loop
      vertex   9.318579e-01 -1.863877e+00  8.575200e-01
      vertex   2.050572e-07 -1.863877e+00  1.715000e+00
      vertex  -7.177006e-07 -1.863877e+00  8.575200e-01
    endloop
  endfacet
  facet normal  0.000000e+00 -1.000000e+00  0.000000e+00
    outer loop
      vertex   9.318569e-01 -1.863877e+00  4.005432e-05
      vertex  -7.177006e-07 -1.863877e+00  8.575200e-01
      vertex  -1.640459e-06 -1.863877e+00  4.005432e-05
    endloop
  endfacet
  facet normal  0.000000e+00 -1.000000e+00  0.000000e+00
    outer loop
      vertex   2.050572e-07 -1.863877e+00  1.715000e+00
      vertex  -9.318572e-01 -1.863877e+00  2.572480e+00
      vertex  -9.318582e-01 -1.863877e+00  1.715000e+00
    endloop
  endfacet
  facet normal  0.000000e+00 -1.000000e+00  0.000000e+00
    outer loop
      vertex  -9.318572e-01 -1.863877e+00  2.572480e+00
      vertex  -1.863715e+00 -1.863877e+00  3.429960e+00
      vertex  -1.863715e+00 -1.863877e+00  2.572480e+00
    endloop
  endfacet
  facet normal  0.000000e+00 -1.000000e+00  0.000000e+00
    outer loop
      vertex  -9.318582e-01 -1.863877e+00  1.715000e+00
      vertex  -1.863715e+00 -1.863877e+00  2.572480e+00
      vertex  -1.863716e+00 -1.863877e+00  1.715000e+00
    endloop
  endfacet
  facet normal  0.000000e+00 -1.000000e+00  0.000000e+00
    outer loop
      vertex  -1.640459e-06 -1.863877e+00  4.005432e-05
      vertex  -9.318593e-01 -1.863877e+00  8.575200e-01
      vertex  -9.318604e-01 -1.863877e+00  4.005432e-05
    endloop
  endfacet
  facet normal  0.000000e+00 -1.000000e+00  0.000000e+00
    outer loop
      vertex  -9.318593e-01 -1.863877e+00  8.575200e-01
      vertex  -1.863716e+00 -1.863877e+00  1.715000e+00
      vertex  -1.863717e+00 -1.863877e+00  8.575200e-01
    endloop
  endfacet
  facet normal  0.000000e+00 -1.000000e+00  0.000000e+00
    outer loop
      vertex  -9.318604e-01 -1.863877e+00  4.005432e-05
      vertex  -1.863717e+00 -1.863877e+00  8.575200e-01
      vertex  -1.863719e+00 -1.863877e+00  4.005432e-05
    endloop
  endfacet
  facet normal  0.000000e+00 -1.000000e+00  0.000000e+00
    outer loop
      vertex  -1.863715e+00 -1.863877e+00  3.429960e+00
      vertex  -9.318572e-01 -1.863877e+00  2.572480e+00
      vertex  -9.318566e-01 -1.863877e+00  3.429960e+00
    endloop
  endfacet
  facet normal  0.000000e+00 -1.000000e+00  0.000000e+00
    outer loop
      vertex  -9.318572e-01 -1.863877e+00  2.572480e+00
      vertex   2.050572e-07 -1.863877e+00  1.715000e+00
      vertex   1.025287e-06 -1.863877e+00  2.572480e+00
    endloop
  endfacet
  facet normal  0.000000e+00 -1.000000e+00  0.000000e+00
    outer loop
      vertex  -9.318566e-01 -1.863877e+00  3.429960e+00
      vertex   1.025287e-06 -1.863877e+00  2.572480e+00
      vertex   1.845515e-06 -1.863877e+00  3.429960e+00
    endloop
  endfacet
  facet normal  0.000000e+00 -1.000000e+00  0.000000e+00
    outer loop
      vertex   2.050572e-07 -1.863877e+00  1.715000e+00
      vertex   9.318579e-01 -1.863877e+00  8.575200e-01
      vertex   9.318587e-01 -1.863877e+00  1.715000e+00
    endloop
  endfacet
  facet normal  0.000000e+00 -1.000000e+00  0.000000e+00
    outer loop
      vertex   9.318579e-01 -1.863877e+00  8.575200e-01
      vertex   1.863715e+00 -1.863877e+00  4.005432e-05
      vertex   1.863716e+00 -1.863877e+00  8.575200e-01
    endloop
  endfacet
  facet normal  0.000000e+00 -1.000000e+00  0.000000e+00
    outer loop
      vertex   9.318587e-01 -1.863877e+00  1.715000e+00
      vertex   1.863716e+00 -1.863877e+00  8.575200e-01
      vertex   1.863716e+00 -1.863877e+00  1.715000e+00
    endloop
  endfacet
  facet normal  0.000000e+00 -1.000000e+00  0.000000e+00
    outer loop
      vertex   1.845515e-06 -1.863877e+00  3.429960e+00
      vertex   9.318593e-01 -1.863877e+00  2.572480e+00
      vertex   9.318604e-01 -1.863877e+00  3.429960e+00
    endloop
  endfacet
  facet normal  0.000000e+00 -1.000000e+00  0.000000e+00
    outer loop
      vertex   9.318593e-01 -1.863877e+00  2.572480e+00
      vertex   1.863716e+00 -1.863877e+00  1.715000e+00
      vertex   1.863717e+00 -1.863877e+00  2.572480e+00
    endloop
  endfacet
  facet normal  0.000000e+00 -1.000000e+00  0.000000e+00
    outer loop
      vertex   9.318604e-01 -1.863877e+00  3.429960e+00
      vertex   1.863717e+00 -1.863877e+00  2.572480e+00
      vertex   1.863719e+00 -1.863877e+00  3.429960e+00
    endloop
  endfacet
  facet normal  0.000000e+00  0.000000e+00  1.000000e+00
    outer loop
      vertex   1.863719e+00  1.863877e+00  3.429960e+00
      vertex   9.318604e-01  9.319392e-01  3.429960e+00
      vertex   1.863719e+00  9.319392e-01  3.429960e+00
    endloop
  endfacet
  facet normal  0.000000e+00  0.000000e+00  1.000000e+00
    outer loop
      vertex   9.318604e-01  9.319392e-01  3.429960e+00
      vertex   1.845515e-06  0.000000e+00  3.429960e+00
      vertex   9.318604e-01  0.000000e+00  3.429960e+00
    endloop
  endfacet
  facet normal  0.000000e+00  0.000000e+00  1.000000e+00
    outer loop
      vertex   1.863719e+00  9.319392e-01  3.429960e+00
      vertex   9.318604e-01  0.000000e+00  3.429960e+00
      vertex   1.863719e+00  0.000000e+00  3.429960e+00
    endloop
  endfacet
  facet normal  0.000000e+00  0.000000e+00  1.000000e+00
    outer loop
      vertex   1.845515e-06  0.000000e+00  3.429960e+00
      vertex  -9.318566e-01 -9.319386e-01  3.429960e+00
      vertex   1.845515e-06 -9.319386e-01  3.429960e+00
    endloop
  endfacet
  facet normal  0.000000e+00  0.000000e+00  1.000000e+00
    outer loop
      vertex  -9.318566e-01 -9.319386e-01  3.429960e+00
      vertex  -1.863715e+00 -1.863877e+00  3.429960e+00
      vertex  -9.318566e-01 -1.863877e+00  3.429960e+00
    endloop
  endfacet
  facet normal  0.000000e+00  0.000000e+00  1.000000e+00
    outer loop
      vertex   1.845515e-06 -9.319386e-01  3.429960e+00
      vertex  -9.318566e-01 -1.863877e+00  3.429960e+00
      vertex   1.845515e-06 -1.863877e+00  3.429960e+00
    endloop
  endfacet
  facet normal  0.000000e+00  0.000000e+00  1.000000e+00
    outer loop
      vertex   1.863719e+00  0.000000e+00  3.429960e+00
      vertex   9.318604e-01 -9.319386e-01  3.429960e+00
      vertex   1.863719e+00 -9.319386e-01  3.429960e+00
    endloop
  endfacet
  facet normal  0.000000e+00  0.000000e+00  1.000000e+00
    outer loop
      vertex   9.318604e-01 -9.319386e-01  3.429960e+00
      vertex   1.845515e-06 -1.863877e+00  3.429960e+00
      vertex   9.318604e-01 -1.863877e+00  3.429960e+00
    endloop
  endfacet
  facet normal  0.000000e+00  0.000000e+00  1.000000e+00
    outer loop
      vertex   1.863719e+00 -9.319386e-01  3.429960e+00
      vertex   9.318604e-01 -1.863877e+00  3.429960e+00
      vertex   1.863719e+00 -1.863877e+00  3.429960e+00
    endloop
  endfacet
  facet normal  0.000000e+00  0.000000e+00  1.000000e+00
    outer loop
      vertex  -1.863715e+00 -1.863877e+00  3.429960e+00
      vertex  -9.318566e-01 -9.319386e-01  3.429960e+00
      vertex  -1.863715e+00 -9.319386e-01  3.429960e+00
    endloop
  endfacet
  facet normal  0.000000e+00  0.000000e+00  1.000000e+00
    outer loop
      vertex  -9.318566e-01 -9.319386e-01  3.429960e+00
      vertex   1.845515e-06  0.000000e+00  3.429960e+00
      vertex  -9.318566e-01  0.000000e+00  3.429960e+00
    endloop
  endfacet
  facet normal  0.000000e+00  0.000000e+00  1.000000e+00
    outer loop
      vertex  -1.863715e+00 -9.319386e-01  3.429960e+00
      vertex  -9.318566e-01  0.000000e+00  3.429960e+00
      vertex  -1.863715e+00  0.000000e+00  3.429960e+00
    endloop
  endfacet
  facet normal  0.000000e+00  0.000000e+00  1.000000e+00
    outer loop
      vertex   1.845515e-06  0.000000e+00  3.429960e+00
      vertex   9.318604e-01  9.319392e-01  3.429960e+00
      vertex   1.845515e-06  9.319392e-01  3.429960e+00
    endloop
  endfacet
  facet normal  0.000000e+00  0.000000e+00  1.000000e+00
    outer loop
      vertex   9.318604e-01  9.319392e-01  3.429960e+00
      vertex   1.863719e+00  1.863877e+00  3.429960e+00
      vertex   9.318604e-01  1.863877e+00  3.429960e+00
    endloop
  endfacet
  facet normal  0.000000e+00  0.000000e+00  1.000000e+00
    outer loop
      vertex   1.845515e-06  9.319392e-01  3.429960e+00
      vertex   9.318604e-01  1.863877e+00  3.429960e+00
      vertex   1.845515e-06  1.863877e+00  3.429960e+00
    endloop
  endfacet
  facet normal  0.000000e+00  0.000000e+00  1.000000e+00
    outer loop
      vertex  -1.863715e+00  0.000000e+00  3.429960e+00
      vertex  -9.318566e-01  9.319392e-01  3.429960e+00
      vertex  -1.863715e+00  9.319392e-01  3.429960e+00
    endloop
  endfacet
  facet normal  0.000000e+00  0.000000e+00  1.000000e+00
    outer loop
      vertex  -9.318566e-01  9.319392e-01  3.429960e+00
      vertex   1.845515e-06  1.863877e+00  3.429960e+00
      vertex  -9.318566e-01  1.863877e+00  3.429960e+00
    endloop
  endfacet
  facet normal  0.000000e+00  0.000000e+00  1.000000e+00
    outer loop
      vertex  -1.863715e+00  9.319392e-01  3.429960e+00
      vertex  -9.318566e-01  1.863877e+00  3.429960e+00
      vertex  -1.863715e+00  1.863877e+00  3.429960e+00
    endloop
  endfacet
  facet normal  0.000000e+00  1.000000e+00  0.000000e+00
    outer loop
      vertex   1.863719e+00  1.863877e+00  3.429960e+00
      vertex   9.318593e-01  1.863877e+00  2.572480e+00
      vertex   9.318604e-01  1.863877e+00  3.429960e+00
    endloop
  endfacet
  facet normal  0.000000e+00  1.000000e+00  0.000000e+00
    outer loop
      vertex   9.318593e-01  1.863877e+00  2.572480e+00
      vertex   0.000000e+00  1.863877e+00  1.715000e+00
      vertex   9.227577e-07  1.863877e+00  2.572480e+00
    endloop
  endfacet
  facet normal  0.000000e+00  1.000000e+00  0.000000e+00
    outer loop
      vertex   9.318604e-01  1.863877e+00  3.429960e+00
      vertex   9.227577e-07  1.863877e+00  2.572480e+00
      vertex   1.845515e-06  1.863877e+00  3.429960e+00
    endloop
  endfacet
  facet normal  0.000000e+00  1.000000e+00  0.000000e+00
    outer loop
      vertex   0.000000e+00  1.863877e+00  1.715000e+00
      vertex  -9.318593e-01  1.863877e+00  8.575200e-01
      vertex  -9.318582e-01  1.863877e+00  1.715000e+00
    endloop
  endfacet
  facet normal  0.000000e+00  1.000000e+00  0.000000e+00
    outer loop
      vertex  -9.318593e-01  1.863877e+00  8.575200e-01
      vertex  -1.863719e+00  1.863877e+00  4.005432e-05
      vertex  -1.863717e+00  1.863877e+00  8.575200e-01
    endloop
  endfacet
  facet normal  0.000000e+00  1.000000e+00  0.000000e+00
    outer loop
      vertex  -9.318582e-01  1.863877e+00  1.715000e+00
      vertex  -1.863717e+00  1.863877e+00  8.575200e-01
      vertex  -1.863716e+00  1.863877e+00  1.715000e+00
    endloop
  endfacet
  facet normal  0.000000e+00  1.000000e+00  0.000000e+00
    outer loop
      vertex   1.845515e-06  1.863877e+00  3.429960e+00
      vertex  -9.318576e-01  1.863877e+00  2.572480e+00
      vertex  -9.318566e-01  1.863877e+00  3.429960e+00
    endloop
  endfacet
  facet normal  0.000000e+00  1.000000e+00  0.000000e+00
    outer loop
      vertex  -9.318576e-01  1.863877e+00  2.572480e+00
      vertex  -1.863716e+00  1.863877e+00  1.715000e+00
      vertex  -1.863715e+00  1.863877e+00  2.572480e+00
    endloop
  endfacet
  facet normal  0.000000e+00  1.000000e+00  0.000000e+00
    outer loop
      vertex  -9.318566e-01  1.863877e+00  3.429960e+00
      vertex  -1.863715e+00  1.863877e+00  2.572480e+00
      vertex  -1.863715e+00  1.863877e+00  3.429960e+00
    endloop
  endfacet
  facet normal  0.000000e+00  1.000000e+00  0.000000e+00
    outer loop
      vertex  -1.863719e+00  1.863877e+00  4.005432e-05
      vertex  -9.318593e-01  1.863877e+00  8.575200e-01
      vertex  -9.318604e-01  1.863877e+00  4.005432e-05
    endloop
  endfacet
  facet normal  0.000000e+00  1.000000e+00  0.000000e+00
    outer loop
      vertex  -9.318593e-01  1.863877e+00  8.575200e-01
      vertex   0.000000e+00  1.863877e+00  1.715000e+00
      vertex  -8.202293e-07  1.863877e+00  8.575200e-01
    endloop
  endfacet
  facet normal  0.000000e+00  1.000000e+00  0.000000e+00
    outer loop
      vertex  -9.318604e-01  1.863877e+00  4.005432e-05
      vertex  -8.202293e-07  1.863877e+00  8.575200e-01
      vertex  -1.640459e-06  1.863877e+00  4.005432e-05
    endloop
  endfacet
  facet normal  0.000000e+00  1.000000e+00  0.000000e+00
    outer loop
      vertex   0.000000e+00  1.863877e+00  1.715000e+00
      vertex   9.318593e-01  1.863877e+00  2.572480e+00
      vertex   9.318587e-01  1.863877e+00  1.715000e+00
    endloop
  endfacet
  facet normal  0.000000e+00  1.000000e+00  0.000000e+00
    outer loop
      vertex   9.318593e-01  1.863877e+00  2.572480e+00
      vertex   1.863719e+00  1.863877e+00  3.429960e+00
      vertex   1.863717e+00  1.863877e+00  2.572480e+00
    endloop
  endfacet
  facet normal  0.000000e+00  1.000000e+00  0.000000e+00
    outer loop
      vertex   9.318587e-01  1.863877e+00  1.715000e+00
      vertex   1.863717e+00  1.863877e+00  2.572480e+00
      vertex   1.863716e+00  1.863877e+00  1.715000e+00
    endloop
  endfacet
  facet normal  0.000000e+00  1.000000e+00  0.000000e+00
    outer loop
      vertex  -1.640459e-06  1.863877e+00  4.005432e-05
      vertex   9.318576e-01  1.863877e+00  8.575200e-01
      vertex   9.318569e-01  1.863877e+00  4.005432e-05
    endloop
  endfacet
  facet normal  0.000000e+00  1.000000e+00  0.000000e+00
    outer loop
      vertex   9.318576e-01  1.863877e+00  8.575200e-01
      vertex   1.863716e+00  1.863877e+00  1.715000e+00
      vertex   1.863716e+00  1.863877e+00  8.575200e-01
    endloop
  endfacet
  facet normal  0.000000e+00  1.000000e+00  0.000000e+00
    outer loop
      vertex   9.318569e-01  1.863877e+00  4.005432e-05
      vertex   1.863716e+00  1.863877e+00  8.575200e-01
      vertex   1.863715e+00  1.863877e+00  4.005432e-05
    endloop
  endfacet
  facet normal  0.000000e+00  0.000000e+00 -1.000000e+00
    outer loop
      vertex  -1.863719e+00  1.863877e+00  4.005432e-05
      vertex  -9.318604e-01  9.319392e-01  4.005432e-05
      vertex  -1.863719e+00  9.319392e-01  4.005432e-05
    endloop
  endfacet
  facet normal  0.000000e+00  0.000000e+00 -1.000000e+00
    outer loop
      vertex  -9.318604e-01  9.319392e-01  4.005432e-05
      vertex  -1.640459e-06  0.000000e+00  4.005432e-05
      vertex  -9.318604e-01  0.000000e+00  4.005432e-05
    endloop
  endfacet
  facet normal  0.000000e+00  0.000000e+00 -1.000000e+00
    outer loop
      vertex  -1.863719e+00  9.319392e-01  4.005432e-05
      vertex  -9.318604e-01  0.000000e+00  4.005432e-05
      vertex  -1.863719e+00  0.000000e+00  4.005432e-05
    endloop
  endfacet
  facet normal  0.000000e+00  0.000000e+00 -1.000000e+00
    outer loop
      vertex  -1.640459e-06  0.000000e+00  4.005432e-05
      vertex   9.318569e-01 -9.319386e-01  4.005432e-05
      vertex  -1.640459e-06 -9.319386e-01  4.005432e-05
    endloop
  endfacet
  facet normal  0.000000e+00  0.000000e+00 -1.000000e+00
    outer loop
      vertex   9.318569e-01 -9.319386e-01  4.005432e-05
      vertex   1.863715e+00 -1.863877e+00  4.005432e-05
      vertex   9.318569e-01 -1.863877e+00  4.005432e-05
    endloop
  endfacet
  facet normal  0.000000e+00  0.000000e+00 -1.000000e+00
    outer loop
      vertex  -1.640459e-06 -9.319386e-01  4.005432e-05
      vertex   9.318569e-01 -1.863877e+00  4.005432e-05
      vertex  -1.640459e-06 -1.863877e+00  4.005432e-05
    endloop
  endfacet
  facet normal  0.000000e+00  0.000000e+00 -1.000000e+00
    outer loop
      vertex  -1.863719e+00  0.000000e+00  4.005432e-05
      vertex  -9.318604e-01 -9.319386e-01  4.005432e-05
      vertex  -1.863719e+00 -9.319386e-01  4.005432e-05
    endloop
  endfacet
  facet normal  0.000000e+00  0.000000e+00 -1.000000e+00
    outer loop
      vertex  -9.318604e-01 -9.319386e-01  4.005432e-05
      vertex  -1.640459e-06 -1.863877e+00  4.005432e-05
      vertex  -9.318604e-01 -1.863877e+00  4.005432e-05
    endloop
  endfacet
  facet normal  0.000000e+00  0.000000e+00 -1.000000e+00
    outer loop
      vertex  -1.863719e+00 -9.319386e-01  4.005432e-05
      vertex  -9.318604e-01 -1.863877e+00  4.005432e-05
      vertex  -1.863719e+00 -1.863877e+00  4.005432e-05
    endloop
  endfacet
  facet normal  0.000000e+00  0.000000e+00 -1.000000e+00
    outer loop
      vertex   1.863715e+00 -1.863877e+00  4.005432e-05
      vertex   9.318569e-01 -9.319386e-01  4.005432e-05
      vertex   1.863715e+00 -9.319386e-01  4.005432e-05
    endloop
  endfacet
  facet normal  0.000000e+00  0.000000e+00 -1.000000e+00
    outer loop
      vertex   9.318569e-01 -9.319386e-01  4.005432e-05
      vertex  -1.640459e-06  0.000000e+00  4.005432e-05
      vertex   9.318569e-01  0.000000e+00  4.005432e-05
    endloop
  endfacet
  facet normal  0.000000e+00  0.000000e+00 -1.000000e+00
    outer loop
      vertex   1.863715e+00 -9.319386e-01  4.005432e-05
      vertex   9.318569e-01  0.000000e+00  4.005432e-05
      vertex   1.863715e+00  0.000000e+00  4.005432e-05
    endloop
  endfacet
  facet normal  0.000000e+00  0.000000e+00 -1.000000e+00
    outer loop
      vertex  -1.640459e-06  0.000000e+00  4.005432e-05
      vertex  -9.318604e-01  9.319392e-01  4.005432e-05
      vertex  -1.640459e-06  9.319392e-01  4.005432e-05
    endloop
  endfacet
  facet normal  0.000000e+00  0.000000e+00 -1.000000e+00
    outer loop
      vertex  -9.318604e-01  9.319392e-01  4.005432e-05
      vertex  -1.863719e+00  1.863877e+00  4.005432e-05
      vertex  -9.318604e-01  1.863877e+00  4.005432e-05
    endloop
  endfacet
  facet normal  0.000000e+00  0.000000e+00 -1.000000e+00
    outer loop
      vertex  -1.640459e-06  9.319392e-01  4.005432e-05
      vertex  -9.318604e-01  1.863877e+00  4.005432e-05
      vertex  -1.640459e-06  1.863877e+00  4.005432e-05
    endloop
  endfacet
  facet normal  0.000000e+00  0.000000e+00 -1.000000e+00
    outer loop
      vertex   1.863715e+00  0.000000e+00  4.005432e-05
      vertex   9.318569e-01  9.319392e-01  4.005432e-05
      vertex   1.863715e+00  9.319392e-01  4.005432e-05
    endloop
  endfacet
  facet normal  0.000000e+00  0.000000e+00 -1.000000e+00
    outer loop
      vertex   9.318569e-01  9.319392e-01  4.005432e-05
      vertex  -1.640459e-06  1.863877e+00  4.005432e-05
      vertex   9.318569e-01  1.863877e+00  4.005432e-05
    endloop
  endfacet
  facet normal  0.000000e+00  0.000000e+00 -1.000000e+00
    outer loop
      vertex   1.863715e+00  9.319392e-01  4.005432e-05
      vertex   9.318569e-01  1.863877e+00  4.005432e-05
      vertex   1.863715e+00  1.863877e+00  4.005432e-05
    endloop
  endfacet
endsolid vcg
